<svg width="45" height="45" viewBox="0 0 45 45" xmlns="http://www.w3.org/2000/svg"><title>AB313844-FFD8-41E9-809B-8A490A248FFF</title><g fill="none" fill-rule="evenodd"><path d="M12.122 12.849L6.546 7.273c-8.243 8.243-8.243 21.334 0 29.577l5.576-5.576C9.94 28.85 8.485 25.698 8.485 22.06c0-3.636 1.455-6.545 3.637-9.212z" fill="#89D1DC"/><path d="M13.091 32.486l-5.576 5.576c8.243 8.243 21.335 8.243 29.577 0l-5.576-5.576c-2.424 2.182-5.576 3.637-9.212 3.637-3.394 0-6.788-1.455-9.213-3.637z" fill="#00A2BC"/><path d="M32.729 31.516l5.575 5.576c8.243-8.242 8.243-21.334 0-29.577l-5.575 5.576c2.181 2.425 3.636 5.576 3.636 9.213 0 3.636-1.455 6.546-3.636 9.212z" fill="#34BACC"/><path d="M31.516 11.88l5.576-5.577c-8.242-8.242-21.334-8.242-29.577 0l5.576 5.576c2.425-2.182 5.576-3.636 9.213-3.636 3.636 0 6.788 1.454 9.212 3.636z" fill="#008AAB"/></g></svg>