<svg width="50" height="42" viewBox="0 0 50 42" xmlns="http://www.w3.org/2000/svg"><title>A7410603-E264-49BD-8402-E6BF8F66C2CA</title><path d="M24.043 31.29c.66 0 1.242-.329 1.598-.831.038-.052.168-.236.258-.486l3.969-10.975-2.321-6.408a1.955 1.955 0 1 0-3.41-.38 2.165 2.165 0 0 0-.258.486l-3.967 10.97 2.33 6.433c.303.7.994 1.191 1.8 1.191M38.147 0L27.339 29.914a2.072 2.072 0 0 1-1.738 1.36v.016h11.423c.896 0 1.661-.574 1.949-1.376L49.78 0H38.147M24.179 9.956h-11.49c-.89 0-1.65.573-1.938 1.376L0 41.246h11.574l10.752-29.914a2.06 2.06 0 0 1 1.853-1.37v-.006" fill="#1e1e1c" fill-rule="evenodd"/></svg>