<svg width="26" height="26" viewBox="0 0 26 26" xmlns="http://www.w3.org/2000/svg"><title>F6CF7282-06C1-4CA2-A184-A676741F3D5D</title><path d="M25.443.557c-.743-.743-1.857-.743-2.6 0L13 10.4 3.157.557c-.743-.743-1.857-.743-2.6 0-.743.743-.743 1.857 0 2.6L10.4 13 .557 22.843c-.743.743-.743 1.857 0 2.6.372.371.743.557 1.3.557s.929-.186 1.3-.557L13 15.6l9.843 9.843c.371.371.928.557 1.3.557.371 0 .928-.186 1.3-.557.743-.743.743-1.857 0-2.6L15.6 13l9.843-9.843c.743-.743.743-1.857 0-2.6z" fill="#717174" fill-rule="evenodd"/></svg>