<?xml version="1.0" encoding="utf-8"?>
<!-- Generator: Adobe Illustrator 19.0.0, SVG Export Plug-In . SVG Version: 6.00 Build 0)  -->
<svg version="1.1" id="Layer_1" xmlns="http://www.w3.org/2000/svg" xmlns:xlink="http://www.w3.org/1999/xlink" x="0px" y="0px"
	 viewBox="-155 247 300 300" style="enable-background:new -155 247 300 300;" xml:space="preserve">
<style type="text/css">
	.st0{fill:url(#Oval_2_);}
	.st1{fill:#FFD28B;}
	.st2{fill:#231F20;}
	.st3{fill:url(#Oval_3_);}
</style>
<title>A0328BAF-EBFD-4E4F-8D82-60566ACC72AD</title>
<desc>Created with sketchtool.</desc>
<radialGradient id="Oval_2_" cx="-308.9833" cy="792.6833" r="0.5" gradientTransform="matrix(300 0 0 -300 92690 238202)" gradientUnits="userSpaceOnUse">
	<stop  offset="0" style="stop-color:#FFD18C"/>
	<stop  offset="0.9386" style="stop-color:#F5A81C"/>
	<stop  offset="0.9525" style="stop-color:#EFA41B"/>
	<stop  offset="0.9684" style="stop-color:#E49D1A"/>
	<stop  offset="0.9851" style="stop-color:#D29117"/>
	<stop  offset="1" style="stop-color:#C68915"/>
</radialGradient>
<circle id="Oval" class="st0" cx="-5" cy="397" r="150"/>
<path id="Shape" class="st1" d="M99.2,397.1c0,18.2-4.7,35.3-12.9,50.3l32.2,17.3c11-20.1,17.2-43.1,17.2-67.6
	c0-77-62-139.7-139-140.9v36.5C53.6,294,99.2,340.3,99.2,397.1L99.2,397.1z"/>
<path id="Shape_1_" class="st1" d="M99.8,397.7c0,18.2-4.7,35.3-12.9,50.3l32.1,17.3c11-20.1,17.2-43.1,17.2-67.6
	c0-77.1-61.9-139.7-138.7-140.9v36.5C54.3,294.6,99.8,340.9,99.8,397.7L99.8,397.7z"/>
<path id="Shape_2_" class="st1" d="M-4.6,502.1c-37.4,0-70.2-19.7-88.6-49.2l-32,17.8c24.8,40.8,69.4,67.9,120.5,67.9
	c51.8,0,96.9-27.9,121.4-69.4l-32.1-17.3C66.4,482,33.2,502.1-4.6,502.1L-4.6,502.1z"/>
<path id="Shape_3_" class="st1" d="M-109.1,397.7c0-56.9,45.5-103.2,102.2-104.4v-36.5c-76.7,1.2-138.7,63.9-138.7,140.9
	c0,25.1,6.6,48.6,18.1,69.1l31.9-17.8C-104.1,434-109.1,416.4-109.1,397.7L-109.1,397.7z"/>
<g id="Shape_4_" transform="translate(12.741313, 15.057915)">
	<path class="st2" d="M-134.6,425.5c0,0.3,0.1,0.8,0.1,1.2c0,0.4,0.2,0.9,0.4,1.3c0.2,0.6,0.4,1,0.8,1.3c0.3,0.3,0.7,0.6,1,0.7
		c0.3,0.1,0.9,0.1,1.3,0c0.6-0.1,1.1-0.3,1.9-0.6c0.8-0.3,1.4-0.7,1.9-0.9c0.4-0.3,0.8-0.7,1-1c0.2-0.3,0.3-0.8,0.3-1.2
		s-0.1-1-0.3-1.5c-0.2-0.4-0.4-0.9-0.7-1.2c-0.2-0.3-0.6-0.7-0.8-1l2.1-1.2c0.3,0.3,0.7,0.8,1.1,1.2c0.3,0.6,0.7,1,0.9,1.5
		c0.8,1.9,0.8,3.4,0.1,4.9c-0.7,1.3-2.1,2.4-4.3,3.3c-2.1,0.8-3.8,1-5.2,0.6c-1.4-0.4-2.5-1.8-3.3-3.6c-0.1-0.2-0.2-0.6-0.2-0.8
		c-0.1-0.2-0.1-0.6-0.2-0.8s-0.1-0.6-0.1-0.8v-0.7L-134.6,425.5L-134.6,425.5z"/>
	<path class="st2" d="M-135,411.3c1.1-0.3,2.2-0.6,3.1-0.6c0.9,0,1.7,0.1,2.3,0.4s1.2,0.8,1.7,1.4s0.9,1.4,1.1,2.4
		c0.6,2,0.4,3.5-0.3,4.8c-0.8,1.2-2.3,2.1-4.6,2.8c-1.1,0.3-2.1,0.6-3.1,0.6c-0.9,0-1.7-0.1-2.3-0.4s-1.2-0.8-1.7-1.4
		s-0.9-1.4-1.1-2.4c-0.3-1-0.4-1.9-0.3-2.7c0-0.8,0.3-1.4,0.7-2.1c0.4-0.7,1-1.1,1.8-1.5C-137.1,412-136.2,411.6-135,411.3
		L-135,411.3z M-134.1,414.2c-0.8,0.2-1.4,0.4-2,0.7c-0.4,0.2-0.9,0.6-1.1,0.8c-0.2,0.3-0.3,0.7-0.3,1c0,0.3,0,0.8,0.2,1.3
		c0.1,0.4,0.3,0.9,0.6,1.2c0.2,0.3,0.4,0.6,0.9,0.7c0.4,0.1,0.8,0.1,1.3,0.1c0.6,0,1.2-0.2,2-0.4c0.8-0.2,1.4-0.4,2-0.7
		c0.4-0.2,0.9-0.6,1.1-0.8c0.2-0.3,0.3-0.7,0.4-1c0-0.3,0-0.8-0.2-1.3c-0.1-0.4-0.3-0.9-0.6-1.2c-0.2-0.3-0.6-0.6-0.9-0.7
		c-0.3-0.1-0.8-0.1-1.3-0.1C-132.7,413.9-133.4,414-134.1,414.2L-134.1,414.2z"/>
	<polygon class="st2" points="-130.5,399.2 -136.8,405.5 -137.8,406.5 -137.8,406.5 -136.3,406.3 -129.5,405.1 -129,407.7 
		-142.2,409.9 -142.6,407.4 -136.7,401.5 -135.7,400.5 -135.7,400.5 -137.1,400.8 -143.6,401.9 -144.1,399.2 -130.9,397 	"/>
	<polygon class="st2" points="-131.6,386.4 -138.6,391.9 -139.7,392.8 -139.7,392.8 -138.2,392.7 -131.3,392.3 -131.1,394.9 
		-144.4,395.7 -144.5,393.1 -138,388.1 -136.9,387.2 -136.9,387.2 -138.3,387.3 -145,387.7 -145.1,385.1 -131.8,384.3 	"/>
	<polygon class="st2" points="-133.9,372.9 -131.3,373.1 -131.7,382.2 -145,381.6 -144.6,372.9 -142,373 -142.2,378.9 -139.5,379 
		-139.3,374.1 -137,374.2 -137.2,379.1 -134.2,379.2 	"/>
	<path class="st2" d="M-140.2,361.6c-0.2,0.3-0.3,0.7-0.4,1.1s-0.2,0.9-0.3,1.4c-0.1,0.6-0.1,1.1,0,1.5s0.2,0.8,0.6,1.1
		c0.3,0.3,0.7,0.6,1.2,0.7c0.6,0.2,1.1,0.3,2,0.4c0.9,0.1,1.5,0.1,2.1,0.1s1-0.1,1.4-0.3c0.3-0.2,0.7-0.6,0.9-0.9
		c0.2-0.4,0.3-0.9,0.4-1.4c0.1-0.4,0.1-1,0-1.4c-0.1-0.4-0.1-0.9-0.2-1.2h2.4c0.1,0.4,0.2,1,0.3,1.5v1.8c-0.2,2-1,3.4-2.3,4.2
		c-1.2,0.8-3.1,1.1-5.4,0.8c-2.2-0.3-3.8-1-4.8-2.2c-1-1.1-1.3-2.8-1.1-4.9c0-0.2,0.1-0.6,0.1-0.8c0.1-0.3,0.1-0.6,0.2-0.8
		s0.2-0.6,0.3-0.8s0.2-0.4,0.3-0.7L-140.2,361.6L-140.2,361.6z"/>
	<polygon class="st2" points="-138.7,353.5 -128.3,355.9 -128.9,358.9 -139.3,356.5 -140.1,359.9 -142.8,359.2 -140.5,349.5 
		-137.9,350 	"/>
	<polygon class="st2" points="-139.8,347.1 -138.9,344.2 -126.2,348.1 -127.1,350.9 	"/>
	<polygon class="st2" points="-133.7,330.4 -123,339.4 -124.2,342.5 -138.2,341.9 -137,338.8 -127.7,339.7 -126.3,339.8 
		-126.3,339.8 -127.4,338.9 -134.8,333.1 	"/>
	<polygon class="st2" points="-132.6,328.3 -131.3,325.5 -119.3,331.4 -120.7,334.1 	"/>
	<polygon class="st2" points="-124.6,319 -115.5,324.3 -117,327 -126.2,321.6 -127.9,324.7 -130.3,323.3 -125.2,314.7 -122.9,316 	
		"/>
	<polygon class="st2" points="-122.1,310.3 -116.7,311.5 -115.2,311.8 -115.2,311.8 -116,310.6 -118.8,306 -116.8,303.3 
		-112.1,312.3 -108.7,314.8 -110.5,317.2 -113.9,314.7 -124,313 	"/>
	<path class="st2" d="M-96.3,294.9c0.9,1,1.3,2,1.2,3.1c-0.1,1.1-0.7,2.2-1.8,3.3c-0.6,0.6-1.1,1-1.8,1.3s-1.2,0.7-1.9,0.8l-1.5-2.1
		c0.7-0.2,1.2-0.4,1.8-0.8c0.6-0.3,1.1-0.7,1.5-1.1c0.6-0.6,0.8-1,0.9-1.4s-0.1-0.8-0.4-1.1c-0.2-0.2-0.6-0.3-0.9-0.3
		c-0.3,0.1-0.8,0.2-1.2,0.3c-0.4,0.1-0.9,0.4-1.4,0.7c-0.6,0.2-1,0.4-1.5,0.6c-0.6,0.1-1.1,0.1-1.7,0c-0.6-0.1-1.1-0.4-1.5-1
		c-0.4-0.4-0.7-0.9-0.9-1.3s-0.3-1-0.3-1.5c0-0.6,0.2-1.1,0.4-1.7c0.3-0.6,0.8-1.1,1.3-1.8c0.4-0.4,1-0.9,1.5-1.2
		c0.6-0.3,1.1-0.7,1.7-0.9l1.4,2.1c-0.6,0.2-1,0.6-1.4,0.9c-0.4,0.3-0.9,0.7-1.2,1c-0.3,0.3-0.6,0.6-0.7,0.8s-0.2,0.4-0.2,0.7v0.6
		c0.1,0.1,0.1,0.3,0.2,0.4c0.2,0.2,0.6,0.3,0.9,0.2c0.3-0.1,0.8-0.2,1.2-0.4c0.4-0.2,0.9-0.4,1.4-0.7c0.6-0.2,1-0.4,1.5-0.6
		c0.6-0.1,1.1-0.1,1.7,0C-97.5,294.1-96.9,294.5-96.3,294.9L-96.3,294.9z"/>
	<polygon class="st2" points="-87.1,289.1 -85.5,291.2 -92.6,296.9 -101,286.5 -94.1,281 -92.5,283 -97,286.6 -95.4,288.7 
		-91.5,285.6 -89.9,287.5 -93.8,290.6 -91.9,292.9 	"/>
	<path class="st2" d="M-81,277.1c0.6,0.8,0.8,1.5,0.8,2.3s-0.2,1.4-0.7,2l5.6,3l-2.9,1.9l-4.6-2.9l-1.5,1l2.8,4.2l-2.5,1.7
		l-7.3-11.2l4.1-2.7c1.4-0.9,2.7-1.3,3.6-1.2C-82.6,275.4-81.8,275.9-81,277.1L-81,277.1z M-83.5,279c-0.3-0.6-0.8-0.9-1.1-0.9
		c-0.3-0.1-0.8,0.1-1.3,0.4l-1.5,1l2,3l1.5-1c0.6-0.3,0.9-0.8,1-1.1C-83,280-83.1,279.6-83.5,279L-83.5,279z"/>
	<polygon class="st2" points="-70.7,267 -68.6,280.9 -71.6,282.4 -81.8,272.7 -78.9,271.2 -72.5,278 -71.5,279.1 -71.5,279.1 
		-71.8,277.7 -73.6,268.5 	"/>
	<polygon class="st2" points="-68.4,266.2 -65.6,265 -60.4,277.2 -63.2,278.4 	"/>
	<path class="st2" d="M-53.5,263.6c-0.3,0-0.8,0-1.2,0.1c-0.4,0.1-0.9,0.2-1.4,0.3c-0.6,0.2-1,0.4-1.3,0.7c-0.3,0.2-0.6,0.6-0.8,1
		c-0.1,0.3-0.2,0.9-0.1,1.3c0.1,0.6,0.2,1.2,0.4,1.9c0.2,0.8,0.6,1.4,0.9,1.9c0.3,0.4,0.6,0.9,1,1.1c0.3,0.2,0.8,0.3,1.2,0.3
		s1-0.1,1.5-0.3c0.4-0.1,0.9-0.3,1.2-0.6c0.3-0.2,0.7-0.4,1-0.8l1.1,2.2c-0.3,0.3-0.8,0.7-1.3,1c-0.6,0.3-1.1,0.6-1.7,0.8
		c-1.9,0.7-3.5,0.6-4.9-0.1c-1.3-0.8-2.3-2.3-3.1-4.5c-0.7-2.1-0.8-3.9-0.2-5.3c0.6-1.4,1.9-2.4,3.9-3.2c0.2-0.1,0.6-0.1,0.8-0.2
		c0.3-0.1,0.6-0.1,0.8-0.1s0.6-0.1,0.8-0.1h0.7L-53.5,263.6L-53.5,263.6z"/>
	<polygon class="st2" points="-40.1,268.4 -39.6,270.9 -48.4,273 -51.5,260.1 -43,258 -42.3,260.6 -48,261.9 -47.3,264.4 
		-42.5,263.3 -42,265.6 -46.7,266.7 -46.1,269.7 	"/>
	<path class="st2" d="M-30.2,265.5c0.2,1.3-0.1,2.4-0.9,3.3c-0.8,0.9-1.9,1.4-3.4,1.7c-0.8,0.1-1.5,0.1-2.2,0.1
		c-0.7-0.1-1.3-0.2-2-0.4v-2.7c0.7,0.2,1.2,0.3,1.9,0.4c0.7,0.1,1.2,0.1,1.9,0c0.8-0.1,1.2-0.3,1.5-0.7c0.3-0.3,0.4-0.7,0.3-1.1
		c0-0.3-0.2-0.6-0.6-0.8s-0.8-0.3-1.2-0.4c-0.4-0.1-1-0.2-1.5-0.3c-0.6-0.1-1.1-0.2-1.5-0.6c-0.4-0.2-0.9-0.6-1.3-1
		c-0.4-0.4-0.6-1-0.7-1.8c-0.1-0.6-0.1-1.1,0-1.7c0.1-0.6,0.3-1,0.7-1.4c0.3-0.4,0.8-0.8,1.3-1.1c0.6-0.3,1.3-0.6,2.1-0.7
		c0.7-0.1,1.3-0.1,2-0.1c0.7,0,1.3,0.1,1.8,0.2v2.5c-0.6-0.1-1.1-0.1-1.7-0.2c-0.6,0-1.1,0-1.5,0.1c-0.4,0.1-0.8,0.1-1,0.2
		c-0.2,0.1-0.4,0.2-0.6,0.3c-0.1,0.1-0.2,0.3-0.2,0.4v0.6c0,0.3,0.2,0.6,0.6,0.8s0.8,0.3,1.2,0.4c0.4,0.1,1,0.2,1.5,0.3
		c0.6,0.1,1.1,0.2,1.5,0.4c0.4,0.2,0.9,0.6,1.3,1C-30.5,264.2-30.3,264.7-30.2,265.5L-30.2,265.5z"/>
</g>
<g id="Group_1_" transform="translate(213.127413, 42.857143)">
	<path id="Shape_5_" class="st2" d="M-142.1,258.9c-0.7,1-1.4,1.8-2.1,2.3s-1.4,0.9-2.1,1.1c-0.8,0.1-1.4,0.1-2.2-0.1
		c-0.8-0.2-1.6-0.7-2.3-1.2l-4.1-2.9l7.8-11l4.1,2.9c0.9,0.7,1.6,1.2,2,1.9c0.4,0.7,0.8,1.3,0.9,2.1c0.1,0.8,0,1.4-0.3,2.3
		C-141,257-141.4,257.9-142.1,258.9L-142.1,258.9z M-144.6,257c0.4-0.7,0.8-1.2,1-1.7c0.2-0.4,0.3-0.9,0.3-1.2s-0.1-0.7-0.3-1
		c-0.2-0.3-0.6-0.6-1-0.9l-1.6-1.1l-4.7,6.6l1.7,1.1c0.4,0.3,0.8,0.6,1.1,0.7c0.3,0.1,0.7,0.1,1.1,0c0.3-0.1,0.8-0.3,1.1-0.7
		C-145.5,258.4-145.2,257.7-144.6,257L-144.6,257z"/>
	<path id="Shape_6_" class="st2" d="M-137.6,268.5l-3.7-3.2l-2.3,1.4l-2.3-2.1l12.5-6.9l2.7,2.5l-5.5,13.1l-2.6-2.2L-137.6,268.5
		L-137.6,268.5z M-135,261.2l-4.1,2.6l2.6,2.3l2.1-4.3l0.7-1.3l0,0L-135,261.2L-135,261.2z"/>
	<polygon id="Shape_7_" class="st2" points="-124.8,269.9 -132.7,277.3 -134.8,275 -126.9,267.7 -129.4,265 -127.4,263.2 
		-120.5,270.7 -122.5,272.6 	"/>
	<path id="Shape_8_" class="st2" d="M-123.4,284.4l-3-3.9l-2.6,1l-2-2.6l13.5-4.6l2.2,2.9l-7.8,11.9l-2.1-2.7L-123.4,284.4
		L-123.4,284.4z M-119.5,277.8l-4.5,1.8l2.1,2.7l2.9-3.9l0.9-1.1l0,0L-119.5,277.8L-119.5,277.8z"/>
	<path id="Shape_9_" class="st2" d="M-110.3,303.3c-1.2,0.7-2.3,0.7-3.5,0.3c-1.1-0.4-2-1.3-2.7-2.8c-0.3-0.7-0.7-1.4-0.8-2.1
		c-0.1-0.7-0.2-1.3-0.2-2l2.5-0.9c0,0.7,0.1,1.3,0.2,1.9c0.1,0.7,0.3,1.2,0.7,1.8c0.3,0.7,0.7,1.1,1.1,1.2c0.3,0.2,0.8,0.1,1.2-0.1
		c0.3-0.1,0.4-0.4,0.6-0.8v-1.3c-0.1-0.4-0.1-1-0.2-1.6s-0.1-1.1,0-1.7c0.1-0.6,0.2-1.1,0.6-1.6c0.2-0.4,0.8-0.9,1.4-1.2
		c0.6-0.2,1-0.4,1.6-0.4c0.6-0.1,1,0,1.6,0.2c0.6,0.2,1,0.4,1.4,0.9c0.4,0.4,0.9,1,1.3,1.8c0.3,0.6,0.6,1.2,0.8,1.9
		c0.2,0.7,0.3,1.2,0.3,1.8l-2.5,0.9c-0.1-0.6-0.2-1.1-0.4-1.7c-0.2-0.6-0.3-1-0.6-1.4c-0.2-0.3-0.3-0.7-0.6-0.9
		c-0.2-0.2-0.3-0.3-0.6-0.4c-0.2-0.1-0.3-0.1-0.6-0.1s-0.3,0.1-0.4,0.1c-0.3,0.1-0.4,0.4-0.6,0.8v1.3c0.1,0.4,0.1,1,0.2,1.6
		s0.1,1.1,0,1.7c-0.1,0.6-0.2,1.1-0.6,1.6C-109.2,302.4-109.7,303-110.3,303.3L-110.3,303.3z"/>
	<polygon id="Shape_10_" class="st2" points="-101.1,307.9 -111,312 -112.1,309.2 -102.2,305.1 -103.5,301.8 -101,300.8 
		-97.1,310.1 -99.5,311.2 	"/>
	<path id="Shape_11_" class="st2" d="M-99.7,325.3c-1.1,0.3-2.2,0.6-3.1,0.6c-0.9,0-1.7-0.1-2.3-0.3c-0.7-0.3-1.2-0.8-1.8-1.4
		c-0.4-0.7-0.9-1.4-1.1-2.5c-0.6-2-0.4-3.6,0.3-4.8c0.8-1.2,2.3-2.2,4.7-2.9c1.1-0.3,2.1-0.6,3.1-0.6c0.9,0,1.7,0.1,2.3,0.4
		c0.7,0.3,1.2,0.8,1.8,1.4c0.4,0.7,0.9,1.4,1.1,2.5c0.3,1,0.4,1.9,0.3,2.7c0,0.8-0.2,1.4-0.7,2.1s-1,1.1-1.8,1.7
		C-97.5,324.5-98.4,325-99.7,325.3L-99.7,325.3z M-100.5,322.3c0.8-0.2,1.4-0.4,2-0.8c0.4-0.2,0.9-0.6,1.1-0.8
		c0.2-0.3,0.3-0.7,0.3-1s0-0.8-0.2-1.3c-0.1-0.4-0.3-0.9-0.6-1.2c-0.2-0.3-0.6-0.6-0.9-0.7s-0.8-0.1-1.3-0.1c-0.6,0.1-1.2,0.2-2,0.4
		c-0.8,0.2-1.4,0.4-2,0.8c-0.6,0.3-0.9,0.6-1.1,0.8c-0.2,0.3-0.3,0.7-0.4,1c0,0.3,0,0.8,0.2,1.3c0.1,0.4,0.3,0.9,0.6,1.2
		c0.2,0.3,0.6,0.6,0.9,0.7c0.3,0.1,0.8,0.1,1.3,0.1C-102,322.6-101.3,322.5-100.5,322.3L-100.5,322.3z"/>
	<path id="Shape_12_" class="st2" d="M-94.8,337c-0.9,0.2-1.8,0.1-2.5-0.1c-0.7-0.2-1.2-0.8-1.6-1.4l-4.9,4.1l-0.7-3.5l4.6-3.2
		l-0.3-1.9l-4.9,0.9l-0.6-3l13.3-2.5l0.9,4.9c0.3,1.7,0.2,2.9-0.3,3.9C-92.4,336.1-93.3,336.8-94.8,337L-94.8,337z M-95.4,333.9
		c0.7-0.1,1.1-0.3,1.3-0.7c0.2-0.3,0.2-0.8,0.1-1.4l-0.3-1.9l-3.6,0.7l0.3,1.8c0.1,0.7,0.3,1.1,0.7,1.3
		C-96.8,334-96.2,334.1-95.4,333.9L-95.4,333.9z"/>
	<polygon id="Shape_13_" class="st2" points="-100.2,349.7 -102.9,349.8 -103.7,340.7 -90.3,339.5 -89.5,348.3 -92.2,348.7 
		-92.6,342.8 -95.3,343 -94.9,347.9 -97.3,348.1 -97.8,343.2 -100.8,343.4 	"/>
</g>
<g id="Group_2_" transform="translate(90.347490, 252.509653)">
	<path id="Shape_14_" class="st2" d="M-143.8,260.2c-0.2,0.5-0.6,1-1,1.3c-0.4,0.3-0.8,0.5-1.3,0.8c-0.6,0.1-1.1,0.1-1.7,0.1
		c-0.7-0.1-1.3-0.3-2.1-0.7l-5-2.4l5.9-12.1l5,2.3c1.3,0.7,2.2,1.4,2.5,2.2s0.3,1.8-0.1,2.7c-0.3,0.7-0.8,1.2-1.2,1.4
		c-0.6,0.3-1,0.4-1.7,0.4l0,0C-143.4,257.3-143.2,258.6-143.8,260.2L-143.8,260.2z M-146.5,258.6c0.2-0.5,0.3-1,0.1-1.3
		c-0.1-0.3-0.6-0.7-1.1-0.9l-2.3-1.1l-1.4,3l2.4,1.1c0.6,0.2,1,0.3,1.3,0.2S-146.8,259.2-146.5,258.6L-146.5,258.6z M-144.5,253.7
		c0.2-0.4,0.3-0.9,0.1-1.2c-0.1-0.3-0.4-0.5-1-0.8l-2.2-1.1l-1.2,2.6l2.3,1.1c0.4,0.2,0.9,0.3,1.2,0.2
		C-145.1,254.5-144.7,254.3-144.5,253.7L-144.5,253.7z"/>
	<polygon id="Shape_15_" class="st2" points="-133.9,265.1 -134.9,267.7 -143,264.7 -138.3,252.1 -135.4,253.2 -139.2,263.1 	"/>
	<path id="Shape_16_" class="st2" d="M-119.9,264.7c-0.3,1.2-0.7,2.2-1.1,3c-0.4,0.8-1,1.4-1.5,1.9c-0.6,0.4-1.3,0.7-2.1,0.8
		s-1.7,0-2.8-0.3c-2-0.5-3.3-1.4-4-2.7c-0.7-1.3-0.7-3.2,0-5.5c0.3-1.2,0.7-2.1,1.1-3c0.4-0.8,1-1.4,1.5-1.9
		c0.6-0.4,1.3-0.7,2.1-0.8s1.7,0,2.8,0.3c1.1,0.3,1.9,0.7,2.5,1.1c0.7,0.4,1.1,1,1.4,1.6s0.4,1.4,0.4,2.3
		C-119.4,262.6-119.6,263.6-119.9,264.7L-119.9,264.7z M-123,263.9c0.2-0.8,0.3-1.5,0.4-2.1c0-0.5,0-1-0.1-1.3
		c-0.1-0.3-0.3-0.7-0.7-0.9c-0.3-0.2-0.8-0.3-1.2-0.5c-0.4-0.2-0.9-0.2-1.3-0.1c-0.3,0-0.7,0.2-1,0.4c-0.3,0.2-0.6,0.7-0.8,1.1
		c-0.2,0.5-0.4,1.2-0.7,2c-0.2,0.8-0.3,1.5-0.4,2.1c-0.1,0.5,0,1,0.1,1.4c0.1,0.3,0.3,0.7,0.7,0.9c0.3,0.2,0.7,0.3,1.2,0.5
		c0.4,0.1,0.9,0.2,1.3,0.1c0.4-0.1,0.7-0.2,1-0.4c0.3-0.2,0.6-0.7,0.8-1.1C-123.4,265.5-123.2,264.8-123,263.9L-123,263.9z"/>
	<path id="Shape_17_" class="st2" d="M-108.7,262.6c-0.3-0.2-0.7-0.3-1.1-0.5c-0.4-0.1-0.9-0.2-1.4-0.3s-1.1-0.1-1.5,0
		c-0.4,0.1-0.8,0.2-1.1,0.5c-0.3,0.3-0.6,0.7-0.8,1.2c-0.2,0.5-0.3,1.2-0.4,2c-0.1,0.9-0.2,1.5-0.1,2.1c0,0.5,0.1,1,0.3,1.4
		c0.2,0.4,0.6,0.7,0.9,0.9c0.4,0.2,0.9,0.3,1.5,0.4c0.6,0.1,1,0.1,1.4,0.1c0.4,0,0.9-0.1,1.2-0.2l-0.1,2.4c-0.4,0.1-1,0.2-1.7,0.3
		c-0.7,0-1.2,0-1.8-0.1c-2-0.3-3.4-1.1-4.2-2.4c-0.8-1.3-1-3.1-0.7-5.5c0.3-2.2,1.1-3.8,2.3-4.8s2.9-1.3,5-1c0.2,0,0.6,0.1,0.8,0.2
		c0.3,0.1,0.6,0.1,0.8,0.2s0.6,0.2,0.8,0.3c0.2,0.1,0.4,0.2,0.7,0.3L-108.7,262.6L-108.7,262.6z"/>
	<polygon id="Shape_18_" class="st2" points="-99.8,273.8 -102.7,268 -104.2,267.9 -104.5,273.5 -107.5,273.4 -106.7,260 
		-103.7,260.2 -104.1,265.5 -102.6,265.6 -99.1,260.4 -95.7,260.6 -100.1,266.8 -96.2,274 	"/>
	<path id="Shape_19_" class="st2" d="M-86.4,263c-0.3-0.1-0.8-0.2-1.2-0.3c-0.4-0.1-1-0.1-1.4-0.1c-0.7,0-1.1,0.1-1.5,0.2
		c-0.4,0.1-0.8,0.4-1,0.8c-0.2,0.3-0.4,0.8-0.6,1.3s-0.1,1.2-0.1,2c0,0.9,0.1,1.5,0.2,2.1c0.1,0.5,0.3,1,0.6,1.3
		c0.2,0.3,0.7,0.5,1.1,0.7c0.4,0.1,1,0.2,1.5,0.1c0.6,0,1-0.1,1.4-0.2c0.4-0.1,0.9-0.2,1.2-0.4l0.4,2.4c-0.4,0.2-1,0.4-1.5,0.5
		s-1.2,0.2-1.8,0.2c-2.1,0.1-3.6-0.4-4.6-1.5c-1-1.1-1.7-2.9-1.7-5.3c-0.1-2.2,0.3-4,1.3-5.2c1-1.2,2.5-1.9,4.6-2h0.9
		c0.3,0,0.6,0,0.9,0.1c0.2,0,0.6,0.1,0.8,0.1c0.2,0.1,0.4,0.1,0.7,0.2L-86.4,263L-86.4,263z"/>
	<polygon id="Shape_20_" class="st2" points="-75.6,272.4 -76.3,266.9 -81,267.5 -80.2,273 -83.2,273.4 -85.1,260.1 -82.1,259.6 
		-81.4,264.8 -76.8,264.1 -77.4,259 -74.5,258.5 -72.6,271.8 	"/>
	<path id="Shape_21_" class="st2" d="M-62.3,266.9l-4.8,1.2l-0.1,2.7l-3.1,0.8l1.2-14.2l3.5-0.9l7.8,11.9l-3.3,0.9L-62.3,266.9
		L-62.3,266.9z M-66.8,260.6l-0.2,4.8l3.3-0.9l-2.4-4.2l-0.7-1.3l0,0V260.6L-66.8,260.6z"/>
	<polygon id="Shape_22_" class="st2" points="-60,254.8 -57,253.8 -52.7,266.6 -55.7,267.5 	"/>
	<polygon id="Shape_23_" class="st2" points="-41.3,261.9 -49,257.3 -50.3,256.6 -50.3,256.6 -49.7,257.9 -46.8,264.4 -49.3,265.5 
		-54.8,253.2 -52.5,252.1 -45.3,256.4 -44.1,257.2 -44.1,257.2 -44.7,255.9 -47.5,249.7 -45.1,248.6 -39.5,261 	"/>
</g>
<radialGradient id="Oval_3_" cx="-308.7265" cy="792.2773" r="0.5" gradientTransform="matrix(200.3861 0 0 -200.3861 61859.4961 159159.5156)" gradientUnits="userSpaceOnUse">
	<stop  offset="0" style="stop-color:#FFD18C"/>
	<stop  offset="0.1199" style="stop-color:#FECF86"/>
	<stop  offset="0.3038" style="stop-color:#FCC776"/>
	<stop  offset="0.5287" style="stop-color:#FABC58"/>
	<stop  offset="0.7839" style="stop-color:#F6AD29"/>
	<stop  offset="0.8515" style="stop-color:#F5A81C"/>
	<stop  offset="0.8889" style="stop-color:#EFA31C"/>
	<stop  offset="0.9315" style="stop-color:#E3981B"/>
	<stop  offset="0.9764" style="stop-color:#D18819"/>
	<stop  offset="1" style="stop-color:#C47D17"/>
</radialGradient>
<circle id="Oval_1_" class="st3" cx="-5" cy="398.2" r="100.2"/>
</svg>
